<svg xmlns="http://www.w3.org/2000/svg" viewBox="0 0 476.29 71.87"><defs><style>.cls-1{fill:#c6c6c6;stroke:#c6c6c6;}.cls-1,.cls-10,.cls-12,.cls-13,.cls-14,.cls-3,.cls-6,.cls-8{stroke-miterlimit:10;}.cls-10,.cls-2{fill:#fff;}.cls-2{stroke:#3c3c3b;stroke-linecap:round;stroke-linejoin:round;stroke-width:1px;}.cls-12,.cls-13,.cls-14,.cls-3,.cls-6,.cls-8{fill:none;}.cls-3{stroke:#f6f6f6;stroke-width:0.88px;stroke-dasharray:5 1;}.cls-4{font-size:10px;fill:#3c3c3b;}.cls-4,.cls-5{font-family:Helvetica, Helvetica;}.cls-5{font-size:8px;fill:#1d1d1b;}.cls-10,.cls-14,.cls-6{stroke:#1d1d1b;}.cls-13,.cls-6{stroke-width:0.25px;}.cls-7{fill:#878787;}.cls-12,.cls-13,.cls-8{stroke:#575756;}.cls-14,.cls-8{stroke-width:0.75px;}.cls-9{fill:#575756;}.cls-10{stroke-width:0.5px;}.cls-11{fill:#f6f6f6;}</style></defs><title>data_cleaning</title><g id="Layer_2" data-name="Layer 2"><g id="Layer_1-2" data-name="Layer 1"><rect class="cls-1" x="-24.97" y="26.05" width="70.79" height="19.84" rx="3.02" ry="3.02" transform="translate(-25.55 46.39) rotate(-90)"/><rect class="cls-2" x="25.42" y="0.5" width="450.37" height="70.87" rx="2.55" ry="2.55"/><rect class="cls-3" x="29.45" y="11.76" width="107.72" height="50.79" rx="7.43" ry="7.43"/><rect class="cls-3" x="252.44" y="11.76" width="107.72" height="50.79" rx="7.43" ry="7.43"/><rect class="cls-3" x="140.94" y="11.76" width="107.72" height="50.79" rx="7.43" ry="7.43"/><rect class="cls-3" x="363.93" y="11.76" width="107.72" height="51.02" rx="7.43" ry="7.43"/><text class="cls-4" transform="translate(13.25 66.42) rotate(-90)">data cleaning</text><text class="cls-5" transform="translate(47.84 22.05)">Remove false cells</text><text class="cls-5" transform="translate(273.48 22.05)">Group brain areas</text><text class="cls-5" transform="translate(372.88 22.05)">Remove artefacts around <tspan x="10.23" y="9.6">brain and ventricles</tspan></text><text class="cls-5" transform="translate(152.62 22.05)">Remove and re-impute <tspan x="12.89" y="9.6">damaged areas</tspan></text><path class="cls-6" d="M339.15,54.3c-2.62,5.33-7,6.67-14.76,2.84s-11.17-11-8.55-16.33,9.78-6.31,17.57-2.48S341.77,49,339.15,54.3Z"/><path class="cls-7" d="M322.2,44.73c0,4.26,8,8.09,0,7.72-3.5-.16-6.35-3.46-6.35-7.72S318.69,37,322.2,37C328.56,37,322.2,40.47,322.2,44.73Z"/><path class="cls-7" d="M338,50.71c0,4.38-.3,7-6.14,7s-4.72-2.37-4.72-6.75-6.41-5.16.28-8.13C332.78,40.42,338,46.34,338,50.71Z"/><path class="cls-6" d="M280.83,44.73c0,4.26,8,8.09,0,7.72-3.51-.16-6.36-3.46-6.36-7.72S277.32,37,280.83,37C287.18,37,280.83,40.47,280.83,44.73Z"/><path class="cls-6" d="M296.53,50.71c0,4.38-.3,7-6.14,7s-4.72-2.37-4.72-6.75-6.41-5.16.28-8.13C291.29,40.42,296.53,46.34,296.53,50.71Z"/><line class="cls-8" x1="297.47" y1="46.05" x2="309.53" y2="46.05"/><polygon class="cls-9" points="311.64 46.05 308.66 47.27 309.37 46.05 308.66 44.83 311.64 46.05"/><circle class="cls-9" cx="58.54" cy="40.39" r="2.5"/><circle class="cls-9" cx="67.22" cy="46.42" r="2.5"/><circle class="cls-9" cx="54.12" cy="53.12" r="2.5"/><circle class="cls-9" cx="103.2" cy="40.05" r="2.5"/><circle class="cls-9" cx="111.88" cy="46.09" r="2.5"/><circle class="cls-9" cx="98.77" cy="52.79" r="2.5"/><circle class="cls-10" cx="56.61" cy="55.29" r="2.5"/><line class="cls-8" x1="77.57" y1="46.66" x2="89.63" y2="46.66"/><polygon class="cls-9" points="91.75 46.66 88.76 47.88 89.47 46.66 88.76 45.45 91.75 46.66"/><circle class="cls-10" cx="64.79" cy="43.92" r="2.5"/><path class="cls-11" d="M401.29,43a3.48,3.48,0,0,0-1.59-1.54,11.28,11.28,0,0,0-5.57.46,23.49,23.49,0,0,0-2.34.73,19.3,19.3,0,0,0-2.2,1.05c-.48.27-.95.57-1.41.88a1.35,1.35,0,0,0-.74,1.27l-1.2.51a6.48,6.48,0,0,0-1.77,1,1.55,1.55,0,0,0-.61,1.2,1.66,1.66,0,0,0,.46.91,6.85,6.85,0,0,0,.66.66l.9.83a5.66,5.66,0,0,0,1.49,1.09,2.7,2.7,0,0,0,2.12-.17,11.38,11.38,0,0,0,3,1c1.06.26,2.13.52,3.22.68a4.71,4.71,0,0,0,1.35.05,5.42,5.42,0,0,0,1.92-.82,3.85,3.85,0,0,0,1.26-1.28c.12.62.9.88,1.43,1.23a5.12,5.12,0,0,0,1.44.77,15,15,0,0,0,1.89.37,4.65,4.65,0,0,0,4.2-.89,2.3,2.3,0,0,0,1-1.8,2,2,0,0,0-1.35-1.56,16.7,16.7,0,0,0-2.11-.53,6.08,6.08,0,0,1-2.92-1.76,1.44,1.44,0,0,1-.47-.91c0-.79,1-1.23,1.15-2,0-.34-.49-.88-.72-1.14a2.72,2.72,0,0,0-.71-.15,4.6,4.6,0,0,1-.74-.25,1.31,1.31,0,0,0-.78-.08A1.23,1.23,0,0,0,401.29,43Z"/><path class="cls-12" d="M389.15,52a1.93,1.93,0,0,1-1.78,0A5.66,5.66,0,0,1,385.88,51l-.9-.83a6.85,6.85,0,0,1-.66-.66,1.66,1.66,0,0,1-.46-.91,1.55,1.55,0,0,1,.61-1.2,6.48,6.48,0,0,1,1.77-1l1.2-.51m1.86,5.94s-.16.24-.15.25.29-.17.34-.14a11.38,11.38,0,0,0,3,1c1.06.26,2.13.52,3.22.68a4.71,4.71,0,0,0,1.35.05,5.42,5.42,0,0,0,1.92-.82,3.72,3.72,0,0,0,.93-.7,1.94,1.94,0,0,0,.42-.92m.92-8.23a3.48,3.48,0,0,0-1.59-1.54,11.28,11.28,0,0,0-5.57.46,23.49,23.49,0,0,0-2.34.73,19.3,19.3,0,0,0-2.2,1.05,15.81,15.81,0,0,0-1.41.88,1.82,1.82,0,0,0-.67.76,1.38,1.38,0,0,0,.53,1.5m15.79-3.5a2.72,2.72,0,0,0-.71-.15,4.6,4.6,0,0,1-.74-.25,1.31,1.31,0,0,0-.78-.08,1.81,1.81,0,0,0-.37.18l-.71.42a2.51,2.51,0,0,0-.74.55m.5,7.56c.12.62.9.88,1.43,1.23a5.12,5.12,0,0,0,1.44.77,15,15,0,0,0,1.89.37,4.65,4.65,0,0,0,4.2-.89,2.3,2.3,0,0,0,1-1.8,2,2,0,0,0-1.35-1.56,16.7,16.7,0,0,0-2.11-.53,6.08,6.08,0,0,1-2.92-1.76,1.44,1.44,0,0,1-.47-.91c0-.79,1-1.23,1.15-2,0-.34-.49-.88-.72-1.14"/><path class="cls-11" d="M445.84,43a3.51,3.51,0,0,0-1.6-1.54,11.24,11.24,0,0,0-5.56.46,22.88,22.88,0,0,0-2.35.73,19.15,19.15,0,0,0-2.19,1.05c-.49.27-1,.57-1.41.88a1.33,1.33,0,0,0-.74,1.27l-1.21.51a6.64,6.64,0,0,0-1.77,1,1.33,1.33,0,0,0-.15,2.11,6.85,6.85,0,0,0,.66.66l.91.83a5.5,5.5,0,0,0,1.49,1.09A2.7,2.7,0,0,0,434,51.9a11.44,11.44,0,0,0,3,1c1.07.26,2.14.52,3.23.68a4.64,4.64,0,0,0,1.34.05,5.27,5.27,0,0,0,1.92-.82,3.88,3.88,0,0,0,1.27-1.28c.11.62.89.88,1.42,1.23a5.41,5.41,0,0,0,1.44.77,15,15,0,0,0,1.89.37,4.64,4.64,0,0,0,4.2-.89,2.28,2.28,0,0,0,1-1.8,2,2,0,0,0-1.34-1.56,16.85,16.85,0,0,0-2.12-.53,6.05,6.05,0,0,1-2.91-1.76,1.4,1.4,0,0,1-.47-.91c0-.79,1-1.23,1.14-2,.05-.34-.48-.88-.71-1.14a2.81,2.81,0,0,0-.71-.15,5.08,5.08,0,0,1-.75-.25,1.28,1.28,0,0,0-.77-.08A1.09,1.09,0,0,0,445.84,43Z"/><path class="cls-13" d="M433.7,52a1.93,1.93,0,0,1-1.78,0A5.5,5.5,0,0,1,430.43,51l-.91-.83a6.85,6.85,0,0,1-.66-.66,1.33,1.33,0,0,1,.15-2.11,6.64,6.64,0,0,1,1.77-1l1.21-.51m1.86,5.94s-.17.24-.15.25.28-.17.34-.14a11.44,11.44,0,0,0,3,1c1.07.26,2.14.52,3.23.68a4.64,4.64,0,0,0,1.34.05,5.27,5.27,0,0,0,1.92-.82,3.39,3.39,0,0,0,.93-.7,1.85,1.85,0,0,0,.42-.92m.93-8.23a3.51,3.51,0,0,0-1.6-1.54,11.24,11.24,0,0,0-5.56.46,22.88,22.88,0,0,0-2.35.73,19.15,19.15,0,0,0-2.19,1.05,14.49,14.49,0,0,0-1.41.88,1.78,1.78,0,0,0-.68.76,1.41,1.41,0,0,0,.54,1.5m15.79-3.5a2.81,2.81,0,0,0-.71-.15,5.08,5.08,0,0,1-.75-.25,1.28,1.28,0,0,0-.77-.08,1.66,1.66,0,0,0-.38.18l-.71.42a2.64,2.64,0,0,0-.74.55m.51,7.56c.11.62.89.88,1.42,1.23a5.41,5.41,0,0,0,1.44.77,15,15,0,0,0,1.89.37,4.64,4.64,0,0,0,4.2-.89,2.28,2.28,0,0,0,1-1.8,2,2,0,0,0-1.34-1.56,16.85,16.85,0,0,0-2.12-.53,6.05,6.05,0,0,1-2.91-1.76,1.4,1.4,0,0,1-.47-.91c0-.79,1-1.23,1.14-2,.05-.34-.48-.88-.71-1.14"/><line class="cls-8" x1="412.16" y1="47.67" x2="424.22" y2="47.67"/><polygon class="cls-9" points="426.34 47.67 423.35 48.89 424.06 47.67 423.35 46.45 426.34 47.67"/><path class="cls-14" d="M207.19,47.52c2.76,5,14.67,4.31,5,9.07-4.23,2.09-9.71.06-12.47-5s-1.66-10.92,2.47-13.19C209.66,34.33,204.43,42.51,207.19,47.52Z"/><path class="cls-14" d="M167.82,45.66c-4.87-3-4.36-12.69-8.83-5.43-2.46,4-.51,9.7,4.36,12.7.34.2.68.39,1,.55l3.9-7.58A3.88,3.88,0,0,1,167.82,45.66Z"/><path class="cls-14" d="M171.45,48.61l-6.94,5c3.08,4.16,8.16,5.58,12,3.48C185.71,52.05,174.81,53,171.45,48.61Z"/><line class="cls-8" x1="179.33" y1="48.98" x2="191.38" y2="48.98"/><polygon class="cls-9" points="193.5 48.98 190.52 50.2 191.23 48.98 190.52 47.76 193.5 48.98"/></g></g></svg>