<svg xmlns="http://www.w3.org/2000/svg" xmlns:xlink="http://www.w3.org/1999/xlink" viewBox="0 0 841.89 595.28"><defs><style>.cls-1,.cls-14{fill:#fff;}.cls-2{fill:url(#radial-gradient);}.cls-3{fill:#7b6a58;}.cls-16,.cls-17,.cls-20,.cls-21,.cls-24,.cls-25,.cls-27,.cls-28,.cls-4,.cls-5,.cls-6{fill:#1d1d1b;}.cls-5{font-size:26px;font-family:Superclarendon-Bold, Superclarendon;letter-spacing:-0.03em;}.cls-16,.cls-18,.cls-22,.cls-24,.cls-5{font-weight:700;}.cls-6{font-size:20px;}.cls-19,.cls-6{font-family:Helvetica, Helvetica;}.cls-7{letter-spacing:-0.07em;}.cls-8{letter-spacing:-0.02em;}.cls-12,.cls-15,.cls-9{fill:none;}.cls-10,.cls-12,.cls-9{stroke:#685ca4;}.cls-10,.cls-12,.cls-14,.cls-15,.cls-9{stroke-miterlimit:10;}.cls-9{stroke-width:1.67px;}.cls-10{fill:#c9cde7;}.cls-11{fill:#e7e5f4;}.cls-13{fill:#685ca4;}.cls-14,.cls-15{stroke:#e7e5f4;}.cls-16{font-size:15px;}.cls-16,.cls-18,.cls-21,.cls-24,.cls-29{font-family:Helvetica-Bold, Helvetica;}.cls-17,.cls-21,.cls-24{font-size:10px;}.cls-17,.cls-20,.cls-23{font-family:Helvetica-Light, Helvetica;}.cls-20{font-size:132.27px;}.cls-25,.cls-27,.cls-28{font-size:8px;}.cls-25{font-family:Helvetica-LightOblique, Helvetica;}.cls-26{letter-spacing:-0.01em;}.cls-27,.cls-28{font-family:Monaco, Monaco;}.cls-28{letter-spacing:-0.02em;}.cls-30{fill:#e0ddef;}</style><radialGradient id="radial-gradient" cx="116" cy="73.11" r="66.1" gradientTransform="matrix(0.87, -0.5, 0.3, 0.52, -6.39, 93.12)" gradientUnits="userSpaceOnUse"><stop offset="0" stop-color="#878787" stop-opacity="0"/><stop offset="0" stop-color="#ededed" stop-opacity="0.01"/><stop offset="0.1" stop-color="#e9e9e9" stop-opacity="0.09"/><stop offset="0.31" stop-color="#dfdfdf" stop-opacity="0.3"/><stop offset="0.4" stop-color="#dadada" stop-opacity="0.4"/><stop offset="0.42" stop-color="#dadada" stop-opacity="0.43"/><stop offset="0.54" stop-color="#dadada" stop-opacity="0.62"/><stop offset="0.67" stop-color="#dadada" stop-opacity="0.76"/><stop offset="0.79" stop-color="#dadada" stop-opacity="0.87"/><stop offset="0.9" stop-color="#dadada" stop-opacity="0.93"/><stop offset="1" stop-color="#dadada" stop-opacity="0.95"/></radialGradient></defs><title>abc3d_cheatsheet</title><g id="background"><rect class="cls-1" width="841.89" height="595.28"/></g><g id="logo"><path class="cls-2" d="M138.05,26.29a5,5,0,0,0-3.33-3.67,13.22,13.22,0,0,0-5.13-.56,90.18,90.18,0,0,0-33.15,7.46c-9,3.92-17.28,9.28-25.52,14.62C65.6,47.58,60.19,51.1,56.11,56c-2.11,2.51-3.91,5.69-3.34,8.92a14.11,14.11,0,0,0,1.08,3.06l2.71,6.13-3.21-4.38a12.41,12.41,0,0,0-7.16-2.07,8.21,8.21,0,0,0-6.41,3.47,13.36,13.36,0,0,0-1.65,5.57A26.5,26.5,0,0,0,37.88,84a38,38,0,0,0,2,6.56A56.15,56.15,0,0,1,42.55,103a51.61,51.61,0,0,0,.9,7.14A10.89,10.89,0,0,0,47,116.26a12.28,12.28,0,0,0,6.47,2.21c5.76.57,11.57-.64,17-2.53,4.06-1.41,8.11-3.23,12.35-3.6a43.46,43.46,0,0,0,5.57,3.31,78.38,78.38,0,0,0,19.19,6.12C124,125.15,142,126,156.3,117.39c5.59-3.37,10.28-8,14.91-12.62,3.82-3.81,7.72-7.72,10.08-12.58a25.88,25.88,0,0,0,3-9.34h0c1-3.42,3.85-6,5.95-8.85a20.56,20.56,0,0,0,4-10.18,16,16,0,0,0-2.62-10.53c-1-1.41-2.19-2.63-3.22-4-1.47-1.95-2.55-4.16-3.94-6.16-3.85-5.57-9.82-9.23-15.63-12.71a38.52,38.52,0,0,0-7.21-3.67,39.39,39.39,0,0,0-5.68-1.34,42.2,42.2,0,0,0-8.8-1c-3,.1-6.73,0-9.07,1.83"/><path class="cls-1" d="M17.74,124.18a145.13,145.13,0,0,1,4.42-16.54l.62-1.93.66-1.85,1.31-3.7c.92-2.36,1.83-4.75,2.8-7a1.58,1.58,0,0,1,1.07-.88A8.27,8.27,0,0,1,30,92.16a3.31,3.31,0,0,0,1.3-.36l1.23-.53,4.92-2.1L47.34,85q19.72-8.32,39.53-16.4T126.6,52.68l19.93-7.78c2.32,1.05,4.62,2.06,6.95,3.15s4.66,2.22,7.06,3.5A164.45,164.45,0,0,1,175.16,60c-1.58,5.83-3.37,11-5.24,16-.91,2.56-1.9,4.89-2.85,7.33s-2,4.64-3,7L144.44,98q-19.64,7.74-39.18,15.71t-39,16.17L56.55,134l-4.86,2.07-1.21.52a3,3,0,0,0-1.14.68,9.13,9.13,0,0,1-1,.95,1.57,1.57,0,0,1-1.36.17c-2.3-.89-4.64-1.88-7-2.84l-3.56-1.59-1.79-.8-1.82-.88A153.77,153.77,0,0,1,17.74,124.18Z"/><path d="M108.74,24.71c-5.19,2.47-10.59,4.47-15.83,6.79-2.6,1.18-5.22,2.34-7.71,3.71A74.27,74.27,0,0,0,78,39.83,154.39,154.39,0,0,0,64.42,50.3,76,76,0,0,0,58,56a12,12,0,0,0-3.56,7.54c-.16-2.92,1.28-5.71,3.11-7.93a75,75,0,0,1,6.24-6A136.31,136.31,0,0,1,77.32,38.83c1.19-.81,2.39-1.61,3.59-2.39.6-.4,1.24-.77,1.86-1.15s1.26-.72,1.9-1.06a83.26,83.26,0,0,1,7.88-3.59c2.68-1.06,5.38-2.06,8.08-3S106.05,25.72,108.74,24.71Z"/><path d="M60,74.84A18.39,18.39,0,0,1,64.73,65a47.31,47.31,0,0,1,8.46-7.08q9-6.24,18.67-11.61A166.32,166.32,0,0,1,111.79,37a122.51,122.51,0,0,1,21.09-6.11c-3.52,1-7,1.92-10.49,3.14-1.74.55-3.45,1.21-5.17,1.82s-3.41,1.29-5.08,2q-5.06,2.09-10,4.46c-3.27,1.6-6.52,3.27-9.7,5C86,50.86,79.84,54.73,73.72,58.72a46.48,46.48,0,0,0-8.55,6.7A18.63,18.63,0,0,0,60,74.84Z"/><path d="M51.35,68.93a4.62,4.62,0,0,0-2.87-1,13.41,13.41,0,0,0-3,.19,6.14,6.14,0,0,0-2.65,1.09A7.43,7.43,0,0,0,41,71.51a31.85,31.85,0,0,0-2.6,5.59,15.67,15.67,0,0,0-.84,6.11,11.87,11.87,0,0,1-.07-6.37,22.93,22.93,0,0,1,2.46-5.94,8.18,8.18,0,0,1,2.18-2.57,6.58,6.58,0,0,1,3.2-1.11,11.78,11.78,0,0,1,3.25.16A4.49,4.49,0,0,1,51.35,68.93Z"/><path d="M54.58,80.33a15.1,15.1,0,0,0-8.13,1.92,16.55,16.55,0,0,0-3.37,2.44,10.4,10.4,0,0,0-2.45,3.21,5.13,5.13,0,0,0-.37,3.76c.36,1.26,1.17,2.5,1.72,3.86a23.87,23.87,0,0,1,1.9,8.45,33.32,33.32,0,0,0-2.77-8,34.92,34.92,0,0,1-2-3.92,6.23,6.23,0,0,1,.37-4.61,11.21,11.21,0,0,1,2.78-3.56A15.59,15.59,0,0,1,46,81.41,13.25,13.25,0,0,1,54.58,80.33Z"/><path d="M45.81,116.45a22.38,22.38,0,0,0,5.39,1.61,30.29,30.29,0,0,0,5.55.38c.93,0,1.86,0,2.8-.12A24.88,24.88,0,0,0,62.3,118a9.21,9.21,0,0,0,5-2.34,7.63,7.63,0,0,1-4.73,3.26,23.4,23.4,0,0,1-5.76.75A20.86,20.86,0,0,1,51,119,13.92,13.92,0,0,1,45.81,116.45Z"/><path d="M68.53,98.25a48.53,48.53,0,0,0,10,10.55,79.23,79.23,0,0,0,12.18,8,55.94,55.94,0,0,0,6.63,2.94,48.06,48.06,0,0,0,7,1.92,88.62,88.62,0,0,0,14.47,1.47,101,101,0,0,0,14.55-.42,76.71,76.71,0,0,0,14.24-2.9A65.07,65.07,0,0,0,160.92,114a67.59,67.59,0,0,0,11.82-8.57,63.58,63.58,0,0,1-11.51,9.08,65.24,65.24,0,0,1-13.34,6.2c-9.36,3.12-19.32,4-29.11,3.65a89.23,89.23,0,0,1-14.65-1.61,47.14,47.14,0,0,1-13.83-5.12,78.17,78.17,0,0,1-12.11-8.34A46.07,46.07,0,0,1,68.53,98.25Z"/><path d="M152.77,32.1a51.91,51.91,0,0,0,4.81,2,25.82,25.82,0,0,1,4.74,2.35A28.84,28.84,0,0,1,170,43.72a38.43,38.43,0,0,1,5,9.3,53.62,53.62,0,0,1,2.66,10.15,98.2,98.2,0,0,0-3.54-9.79A45.18,45.18,0,0,0,169,44.45a32.32,32.32,0,0,0-7.23-7.21,30.22,30.22,0,0,0-4.45-2.59A36.48,36.48,0,0,1,152.77,32.1Z"/><path d="M153.88,26.12a20.22,20.22,0,0,1,6.17.95,47.58,47.58,0,0,1,11.39,5.22,57,57,0,0,1,13.94,12.54,28.15,28.15,0,0,0,2,2.33c.71.75,1.46,1.47,2.17,2.25a11,11,0,0,1,1.8,2.6,5.43,5.43,0,0,1,.46,3.09,5.73,5.73,0,0,0-.76-2.94,11.08,11.08,0,0,0-2-2.33c-.73-.71-1.51-1.39-2.28-2.11a27.27,27.27,0,0,1-2.17-2.27c-1.37-1.54-2.77-3.05-4.27-4.47s-3-2.81-4.6-4.09a62,62,0,0,0-10.27-6.76,52.61,52.61,0,0,0-5.64-2.51A22.79,22.79,0,0,0,153.88,26.12Z"/><path class="cls-3" d="M214.65,11.25l-21.1,27c-.39.51.32,1.23.72.72l21.1-27c.39-.51-.32-1.23-.72-.72Z"/><path class="cls-1" d="M195.1,40.52a2.86,2.86,0,0,0-3.22-2.44,8.11,8.11,0,0,0-3.93,2l-5.18,4.05a39.6,39.6,0,0,1-5.93,4.09,28.8,28.8,0,0,1-7.15,2.45,60.92,60.92,0,0,1-20.63,1.1,24,24,0,0,0,12.9,19A10.71,10.71,0,0,0,168.34,72c2.91-.51,5.24-2.78,7.13-5.16,2.61-3.28,4.72-6.95,7.09-10.42,4-5.79,7.28-11.42,12.54-15.91"/><path class="cls-4" d="M195.35,40.45c-1.91-6.22-8.89.54-11.46,2.53-4.77,3.7-9.24,6.42-15.19,7.68a62.88,62.88,0,0,1-19.64.89.26.26,0,0,0-.26.26c1.12,8.6,8.95,22.31,19.58,20.45,5.39-.94,8.72-7,11.43-11.18,4.67-7.11,9.09-14.65,15.47-20.39.25-.21-.11-.57-.36-.35-6.42,5.76-10.85,13.33-15.54,20.49-4.06,6.18-8.66,13.66-17.29,9.73a22.35,22.35,0,0,1-9.81-9.43c-.89-1.58-2.74-4.61-2.52-6.56.4-3.63,4.35-2.07,6.83-2.09A60.2,60.2,0,0,0,169.76,51,29.07,29.07,0,0,0,180,46.58c2.18-1.5,13.07-11.81,14.85-6,.1.31.58.18.49-.13Z"/><text class="cls-5" transform="translate(76.57 89.89) rotate(-0.36)">abc4d</text></g><g id="title"><text class="cls-6" transform="translate(47.02 138.56)">CHE<tspan class="cls-7" x="42.23" y="0">A</tspan><tspan x="54.09" y="0">TSHEE</tspan><tspan class="cls-8" x="120.77" y="0">T</tspan></text></g><g id="structure_page"><rect class="cls-9" x="14.82" y="155.36" width="263.62" height="128.94" rx="4.25" ry="4.25"/><rect class="cls-9" x="288.23" y="115.9" width="263.62" height="168.39" rx="3.34" ry="3.34"/><rect class="cls-9" x="288.23" y="300.85" width="263.62" height="280.88" rx="4.32" ry="4.32"/><rect class="cls-10" x="14.82" y="155.36" width="263.62" height="28.9" rx="4.25" ry="4.25"/><rect class="cls-10" x="288.49" y="115.96" width="263.62" height="28.9" rx="4.25" ry="4.25"/><rect class="cls-10" x="288.49" y="297.64" width="263.62" height="28.9" rx="4.25" ry="4.25"/><rect class="cls-9" x="14.82" y="297.64" width="263.62" height="284.63" rx="6.32" ry="6.32"/><rect class="cls-10" x="14.82" y="297.64" width="263.62" height="28.9" rx="4.25" ry="4.25"/><rect class="cls-11" x="296.22" y="50.39" width="249.45" height="45.04" rx="9.83" ry="9.83"/><rect class="cls-11" x="296.05" y="333.04" width="249.45" height="45.04" rx="9.83" ry="9.83"/><rect class="cls-9" x="288.23" y="12.74" width="263.62" height="94.85" rx="2.51" ry="2.51"/><rect class="cls-10" x="288.49" y="12.74" width="263.62" height="28.9" rx="4.25" ry="4.25"/><line class="cls-12" x1="372.78" y1="178.28" x2="372.78" y2="244.14"/><polygon class="cls-13" points="379.21 243.19 372.78 247.26 366.34 243.19 366.34 243.15 379.21 243.15 379.21 243.19"/><rect class="cls-14" x="297.42" y="155.75" width="147.41" height="22.52" rx="5.34" ry="5.34"/><rect class="cls-14" x="297.42" y="186.67" width="147.41" height="22.52" rx="5.34" ry="5.34"/><rect class="cls-14" x="297.42" y="217.6" width="147.41" height="22.52" rx="5.34" ry="5.34"/><rect class="cls-15" x="297.42" y="248.52" width="147.41" height="22.52" rx="5.34" ry="5.34"/><rect class="cls-15" x="299.34" y="444.11" width="124.72" height="22.52" rx="4.92" ry="4.92"/><line class="cls-12" x1="426.06" y1="455.69" x2="456.42" y2="455.69"/><polygon class="cls-13" points="455.95 452.48 457.98 455.69 455.95 458.91 455.93 458.91 455.93 452.48 455.95 452.48"/><rect class="cls-9" x="563.51" y="13.17" width="263.62" height="271.13" rx="4.24" ry="4.24"/><rect class="cls-10" x="563.51" y="12.74" width="263.62" height="28.9" rx="4.25" ry="4.25"/><rect class="cls-11" x="571.65" y="51.56" width="119.06" height="106.19" rx="10.43" ry="10.43"/><rect class="cls-11" x="699.58" y="51.56" width="119.06" height="106.19" rx="10.43" ry="10.43"/><rect class="cls-11" x="571.23" y="167.65" width="119.06" height="106.19" rx="10.43" ry="10.43"/><rect class="cls-11" x="699.15" y="167.65" width="119.06" height="106.19" rx="10.43" ry="10.43"/><rect class="cls-9" x="563.51" y="300.85" width="263.62" height="280.88" rx="4.32" ry="4.32"/><rect class="cls-10" x="563.51" y="297.64" width="263.62" height="28.9" rx="4.25" ry="4.25"/></g><g id="titles_boxes"><text class="cls-16" transform="translate(105.81 173.93)">Get started</text><text class="cls-16" transform="translate(363.16 135.2)">Quality control</text><text class="cls-16" transform="translate(364.66 316.39)">Preprocessing</text><text class="cls-16" transform="translate(81.59 316.38)">Prepare resources</text><text class="cls-16" transform="translate(299.97 31.48)">Migrate your data from other tools</text><text class="cls-16" transform="translate(661.18 31.48)">Analyses</text><text class="cls-16" transform="translate(641.11 316.39)">Data resources</text></g><g id="text"><text class="cls-17" transform="translate(22.37 200.45)">Install the package from <tspan class="cls-18" x="110.6" y="0">GitHub </tspan><tspan class="cls-19" x="146.7" y="0">with:</tspan></text><text class="cls-17" transform="translate(22.37 256.73)">For <tspan class="cls-18" x="17.23" y="0">tutorials </tspan><tspan x="59.46" y="0">go to website:</tspan></text><text class="cls-17" transform="translate(312.44 170.1)">remove false positive cells</text><text class="cls-17" transform="translate(304.99 200.31)">specify brain areas of interest</text><text class="cls-17" transform="translate(316.6 226.13)">remove artefacts around <tspan x="10.56" y="12">brain and ventricles</tspan></text><text class="cls-17" transform="translate(321.89 257.02)">remove and re-impute <tspan x="13.89" y="12">damaged areas</tspan></text><text class="cls-17" transform="translate(326.57 66.8)">Transfer data from previous tools to abc4d</text><text class="cls-20" transform="translate(442.77 251.21) scale(0.29 1)">}</text><text class="cls-17" transform="translate(301.75 452.7)">normalization to the size of <tspan x="28.34" y="12">the brain area</tspan></text><text class="cls-17" transform="translate(436.7 495.98)">z-score normalization</text><text class="cls-17" transform="translate(304.94 496.9)">Box-Cox transformation</text><text class="cls-21" transform="translate(316.85 350.19)"><tspan class="cls-22">From xyz</tspan><tspan class="cls-23" x="43.9" y="0" xml:space="preserve"> coordinates </tspan><tspan class="cls-22" x="102.26" y="0">to summary</tspan><tspan class="cls-23" x="158.95" y="0" xml:space="preserve"> per region</tspan></text><text class="cls-17" transform="translate(336.68 423.65)">Depending on the analysis of choice:</text><rect class="cls-15" x="295.09" y="482.38" width="124.72" height="22.52" rx="4.92" ry="4.92"/><rect class="cls-15" x="422.12" y="482.62" width="124.72" height="22.52" rx="4.92" ry="4.92"/><text class="cls-24" transform="translate(611.15 68.11)">Activity</text><text class="cls-25" transform="translate(581.84 83.26)">compare brain areas across <tspan x="13.56" y="9.6">experimental groups</tspan></text><text class="cls-24" transform="translate(721.47 68.11)">Order over time</text><text class="cls-24" transform="translate(585.86 185.38)"><tspan class="cls-26">W</tspan><tspan x="9.35" y="0">ithin a brain area</tspan></text><text class="cls-25" transform="translate(701.13 83.26)">order functional networks based <tspan x="14.9" y="9.6">on expression over time</tspan></text><text class="cls-25" transform="translate(578.33 204.61)">identify most dense parts of a <tspan x="-4.22" y="9.6">brain area and compare groups</tspan></text><text class="cls-24" transform="translate(739.08 185.38)">Strategy</text><text class="cls-25" transform="translate(702.03 204.61)">distinguish between increase in <tspan x="7.78" y="9.6">count or intensity, compare </tspan><tspan x="30.68" y="19.2">across groups</tspan></text><text class="cls-27" transform="translate(303.98 83.69)">see tutorial @ valeriabonapersona.github.io/abc4d</text></g><g id="functions"><text class="cls-28" transform="translate(25.22 233.97)">devtools::install_github(“valeriabonapersona/abc4d”)</text><text class="cls-27" transform="translate(41.02 274.3)">valeriabonapersona.github.io/abc4d/articles/</text><rect class="cls-11" x="21.23" y="333.04" width="249.45" height="56.69" rx="11.03" ry="11.03"/><text class="cls-17" transform="translate(40.26 344.32)">Dataframe with <tspan class="cls-18" x="70.02" y="0">classification of brain areas of </tspan><tspan class="cls-29"><tspan class="cls-22" x="-10.01" y="12">interest</tspan><tspan class="cls-23" x="26.11" y="12" xml:space="preserve"> and grouping in (functional) categorizations</tspan></tspan></text><text class="cls-27" transform="translate(100.35 374.66)">find_all_children()<tspan x="12" y="9.6">find_parents()</tspan></text><rect class="cls-30" x="22.52" y="457.1" width="249.45" height="56.69" rx="11.03" ry="11.03"/><text class="cls-17" transform="translate(80.11 477.02)">(Un)blinded <tspan class="cls-18" x="56.11" y="0">meta </tspan><tspan x="82.23" y="0">information</tspan></text><text class="cls-27" transform="translate(106.43 499.67)">remove_blinding()</text><rect class="cls-30" x="21.91" y="395.07" width="249.45" height="56.69" rx="11.03" ry="11.03"/><text class="cls-17" transform="translate(83.43 413.84)">Adapt <tspan class="cls-18" x="30.01" y="0">cell estimation atlas</tspan></text><text class="cls-25" transform="translate(25.27 427.74)">used to normalize the number of + cells to the size of the brain area</text><text class="cls-27" transform="translate(91.45 438.43)">adapt_estimation_atlas()</text><rect class="cls-30" x="22.52" y="519.13" width="249.45" height="56.69" rx="11.03" ry="11.03"/><text class="cls-17" transform="translate(87.33 536.76)">Other resources (optional)</text><text class="cls-25" transform="translate(58.51 548.65)">for adapting Allen Brian Atlas API data to the analysis</text><text class="cls-27" transform="translate(101.63 570.95)">expression_levels()</text><text class="cls-27" transform="translate(101.05 560.7)">from_aba_api_to_df()</text><text class="cls-28" transform="translate(452.09 250.1)">samples_files_to_df()</text><text class="cls-27" transform="translate(470.25 217.23)">clean_counts()</text><text class="cls-27" transform="translate(367.97 372.71)">summarize_per_region()</text><text class="cls-27" transform="translate(461.91 456.94)">normalize()</text><text class="cls-27" transform="translate(371.91 526.25)">preprocess_per_region()</text><line class="cls-12" x1="387.86" y1="505.14" x2="409.86" y2="516.64"/><polygon class="cls-13" points="410.93 513.57 411.24 517.36 407.94 519.27 407.93 519.26 410.91 513.56 410.93 513.57"/><line class="cls-12" x1="465.85" y1="505.14" x2="443.85" y2="516.64"/><polygon class="cls-13" points="445.76 519.27 442.47 517.36 442.78 513.57 442.8 513.56 445.78 519.26 445.76 519.27"/><text class="cls-27" transform="translate(585.63 248.16)">calculate_density()<tspan x="21.6" y="9.6">voxelize()</tspan></text><text class="cls-27" transform="translate(708.69 248.16)">categorize_strategy()<tspan x="-4.8" y="9.6">find_changed_strategy()</tspan></text><rect class="cls-30" x="571.39" y="331.74" width="249.45" height="42.52" rx="11.03" ry="11.03"/><text class="cls-17" transform="translate(573.42 350.19)">Tree structure of the Allen Brain reference Atlas (25µm)</text><text class="cls-27" transform="translate(653.09 362.71)">data(“atlas_tree”)</text><rect class="cls-30" x="571.76" y="432.52" width="249.45" height="42.52" rx="11.03" ry="11.03"/><text class="cls-17" transform="translate(618.82 451.21)">Cell estimation atlas from Ero et al.</text><text class="cls-27" transform="translate(638.64 462.8)">data(“atlas_estimation”)</text><rect class="cls-30" x="571.57" y="482.92" width="249.45" height="42.52" rx="11.03" ry="11.03"/><text class="cls-17" transform="translate(609.89 501.74)">c-fos expression levels (from ABA API)</text><text class="cls-27" transform="translate(631.49 513.4)">data(“cfos_expression_aba”)</text><text class="cls-28" transform="translate(77.55 219.71)"># install.packages(“devtools”)</text><rect class="cls-30" x="571.13" y="533.31" width="249.45" height="42.52" rx="11.03" ry="11.03"/><text class="cls-17" transform="translate(610.26 552.17)">example data from Bonapersona et al.</text><text class="cls-27" transform="translate(660.29 563.38)">data(“example”)</text><rect class="cls-30" x="570.69" y="382.13" width="249.45" height="42.52" rx="11.03" ry="11.03"/><text class="cls-17" transform="translate(620.67 402)">Mask around brain and ventricles</text><text class="cls-27" transform="translate(667.49 412.33)">data(“mask”)</text><line class="cls-12" x1="503.86" y1="222.99" x2="503.86" y2="238.56"/><polygon class="cls-13" points="507.07 238.08 503.86 240.12 500.64 238.08 500.64 238.06 507.07 238.06 507.07 238.08"/></g><g id="examples_plots"><text class="cls-27" transform="translate(711.99 128.46)">order_brain_areas()</text><text class="cls-27" transform="translate(586 114.69)">find_most_active()<tspan x="-7.2" y="9.6">pairwise_activation()</tspan><tspan x="-7.2" y="19.2">prepare_sim_weights()</tspan><tspan x="2.4" y="28.8">sim_most_active()</tspan></text></g></svg>