<svg xmlns="http://www.w3.org/2000/svg" xmlns:xlink="http://www.w3.org/1999/xlink" viewBox="0 0 439.74 279.27"><defs><style>.cls-1{fill:url(#radial-gradient);}.cls-2{fill:#fff;}.cls-3{opacity:0.85;}.cls-4{fill:#7b6a58;}.cls-5,.cls-6{fill:#1d1d1b;}.cls-6{font-size:60px;font-family:Superclarendon-Bold, Superclarendon;font-weight:700;letter-spacing:-0.03em;}</style><radialGradient id="radial-gradient" cx="194.55" cy="152.89" r="162.91" gradientTransform="matrix(0.87, -0.5, 0.3, 0.52, -19.8, 170.72)" gradientUnits="userSpaceOnUse"><stop offset="0" stop-color="#878787" stop-opacity="0"/><stop offset="0" stop-color="#cbbba0" stop-opacity="0.01"/><stop offset="0.11" stop-color="#cbbba0" stop-opacity="0.1"/><stop offset="0.33" stop-color="#cbbba0" stop-opacity="0.32"/><stop offset="0.4" stop-color="#cbbba0" stop-opacity="0.4"/><stop offset="1" stop-color="#cbbba0" stop-opacity="0.4"/></radialGradient></defs><title>logo_1</title><g id="Layer_2" data-name="Layer 2"><g id="Layer_6" data-name="Layer 6"><path class="cls-1" d="M248.89,37.5c-.64-4.22-4.21-7.54-8.21-9S232.3,26.94,228,27.07a222.49,222.49,0,0,0-81.69,18.39c-22.18,9.66-42.6,22.87-62.9,36C70.32,90,57,98.65,46.93,110.61c-5.21,6.18-9.64,14-8.22,22a33.52,33.52,0,0,0,2.64,7.55q3.34,7.55,6.68,15.1l-7.9-10.79c-5.26-3.31-11.43-5.43-17.64-5.1s-12.41,3.35-15.8,8.56c-2.63,4-3.42,8.95-4.06,13.71-.82,6-1.52,12.18-.62,18.21.83,5.57,3,10.84,4.82,16.17a137.25,137.25,0,0,1,6.68,30.58c.6,5.88.82,11.84,2.21,17.59s4.09,11.41,8.73,15.08c4.47,3.53,10.29,4.89,16,5.45,14.19,1.4,28.5-1.56,42-6.24,10-3.48,20-7.95,30.45-8.86a107.39,107.39,0,0,0,13.73,8.15c14.85,7.41,31.05,11.72,47.3,15.08,40.29,8.33,84.79,10.48,120-10.78,13.78-8.31,25.34-19.76,36.74-31.11,9.43-9.39,19-19,24.84-31,3.71-7.63,6.68-14.61,7.39-23h0c2.54-8.44,9.47-14.68,14.67-21.8A50.87,50.87,0,0,0,387.34,130,39.59,39.59,0,0,0,380.87,104c-2.4-3.46-5.4-6.47-7.94-9.83C369.3,89.42,366.65,84,363.23,79,353.75,65.3,339,56.29,324.71,47.71c-5.71-3.43-11.48-6.88-17.78-9.05a95.27,95.27,0,0,0-14-3.3c-7.17-1.3-14.41-2.59-21.7-2.36s-16.57,0-22.34,4.5"/></g><g id="Layer_5" data-name="Layer 5"><polygon class="cls-2" points="321.87 145.73 270.08 77.31 5.9 236.61 5.9 271.83 321.87 145.73"/></g><g id="Layer_4" data-name="Layer 4"><path d="M176.66,33.61c-12.82,6-26.1,11.06-39,16.75-6.44,2.87-12.86,5.8-19,9.17-1.55.83-3,1.73-4.57,2.59s-2.94,1.82-4.41,2.81q-4.42,2.92-8.76,5.94A407,407,0,0,0,67.42,96.69l-8.12,6.83a84.05,84.05,0,0,0-7.68,7.16,36.26,36.26,0,0,0-6,8.49,25.05,25.05,0,0,0-2.74,10.09,23.15,23.15,0,0,1,.4-5.31,26.39,26.39,0,0,1,1.62-5.11,37.12,37.12,0,0,1,5.67-9.12A79.72,79.72,0,0,1,58,102.05l7.88-7.13c5.24-4.77,10.66-9.37,16.21-13.81s11.28-8.65,17.11-12.7c2.93-2,5.89-4,8.85-5.93,1.47-1,3-1.9,4.56-2.85s3.1-1.79,4.7-2.6c6.34-3.29,12.84-6.19,19.44-8.82s13.24-5.08,19.91-7.45S170,36.09,176.66,33.61Z"/><path d="M56.55,157.15a37.92,37.92,0,0,1,4-12.93A54.44,54.44,0,0,1,68.18,133c6-6.85,13.44-12.32,20.85-17.45a540.66,540.66,0,0,1,46-28.61l6-3.22c2-1.06,4-2.07,6-3.11,4-2.1,8.09-4,12.16-6,2-1,4.12-1.87,6.17-2.81s4.12-1.87,6.21-2.73l6.25-2.64,6.32-2.46a303.59,303.59,0,0,1,52-15c-8.69,2.41-17.39,4.75-25.88,7.76l-3.2,1.06-3.17,1.14-6.35,2.29c-4.17,1.67-8.41,3.18-12.53,5A474.93,474.93,0,0,0,136.5,89.52c-2,1-3.94,2.17-5.89,3.28s-3.93,2.19-5.86,3.33c-3.87,2.29-7.76,4.54-11.59,6.9-7.72,4.61-15.26,9.53-22.82,14.41s-14.91,10-21.08,16.5a53.25,53.25,0,0,0-8.05,10.65A40.56,40.56,0,0,0,56.55,157.15Z"/><path d="M35.2,142.58a11.66,11.66,0,0,0-7.06-2.35,32,32,0,0,0-3.79,0,28.26,28.26,0,0,0-3.71.43,15.23,15.23,0,0,0-6.53,2.7A17.84,17.84,0,0,0,9.65,149c-1.28,2.18-2.48,4.44-3.55,6.74a63.88,63.88,0,0,0-2.86,7,38.5,38.5,0,0,0-2.06,15.06A29,29,0,0,1,1,162.09a47.44,47.44,0,0,1,2.52-7.55,72.15,72.15,0,0,1,3.55-7.09,20,20,0,0,1,5.38-6.34,16.26,16.26,0,0,1,7.87-2.73,28.66,28.66,0,0,1,8,.4,15.59,15.59,0,0,1,3.82,1.27,10.61,10.61,0,0,1,1.69,1.09A8.78,8.78,0,0,1,35.2,142.58Z"/><path d="M43.16,170.7a37.41,37.41,0,0,0-20,4.73,40.57,40.57,0,0,0-8.29,6,25.32,25.32,0,0,0-6,7.92,14.07,14.07,0,0,0-1.35,4.59,11.78,11.78,0,0,0,.44,4.67c.88,3.11,2.88,6.16,4.22,9.52A58.27,58.27,0,0,1,16.79,229,83,83,0,0,0,10,209.11c-.79-1.56-1.63-3.05-2.49-4.62a29.81,29.81,0,0,1-2.32-5,14.23,14.23,0,0,1-.65-5.81,17,17,0,0,1,1.55-5.56,27.45,27.45,0,0,1,6.86-8.75,38.22,38.22,0,0,1,9.14-6A32.45,32.45,0,0,1,43.16,170.7Z"/><path d="M21.55,259.73a56.4,56.4,0,0,0,13.27,3.95,62.43,62.43,0,0,0,6.82.78,68.36,68.36,0,0,0,6.87.17c2.29,0,4.59-.12,6.89-.31a61.28,61.28,0,0,0,6.8-.82c4.43-.85,8.83-2.37,12.19-5.75a15,15,0,0,1-5,5.12,24.83,24.83,0,0,1-6.66,2.91,57.92,57.92,0,0,1-14.19,1.85A52.23,52.23,0,0,1,34.32,266,34.58,34.58,0,0,1,21.55,259.73Z"/><path d="M77.55,214.86a118.67,118.67,0,0,0,24.72,26c4.67,3.76,9.57,7.22,14.57,10.52s10.16,6.37,15.45,9.13a133.63,133.63,0,0,0,16.35,7.23,119.58,119.58,0,0,0,17.21,4.7,222.23,222.23,0,0,0,35.64,3.68c23.91.89,48.08-1.11,70.95-8.18a160.77,160.77,0,0,0,32.83-14.36,166.31,166.31,0,0,0,29.12-21.12A155.63,155.63,0,0,1,306,254.83a161.09,161.09,0,0,1-32.87,15.29,175.87,175.87,0,0,1-35.49,7.71,248.29,248.29,0,0,1-36.27,1.28c-12.08-.49-24.19-1.43-36.11-3.9a116.55,116.55,0,0,1-34.07-12.68c-5.31-2.93-10.44-6.17-15.42-9.59s-9.84-7-14.45-11a132.51,132.51,0,0,1-13-12.64A97,97,0,0,1,77.55,214.86Z"/><path d="M285.16,51.83C289,53.76,293,55.2,297,56.76a65.69,65.69,0,0,1,11.67,5.79,71.71,71.71,0,0,1,18.93,17.91,93.88,93.88,0,0,1,12.28,22.93,128.93,128.93,0,0,1,6.55,25,238.52,238.52,0,0,0-8.72-24.12c-1.72-3.88-3.56-7.71-5.65-11.39a91.74,91.74,0,0,0-6.86-10.63A80.9,80.9,0,0,0,317,72.66a73.44,73.44,0,0,0-9.61-8.17,76.89,76.89,0,0,0-11-6.39A84.55,84.55,0,0,1,285.16,51.83Z"/><path d="M287.92,37.07a48.93,48.93,0,0,1,15.2,2.35,112,112,0,0,1,14.45,5.48,126.92,126.92,0,0,1,13.61,7.39,144.75,144.75,0,0,1,12.58,9,146.82,146.82,0,0,1,21.8,21.87c.82,1,1.61,2,2.4,2.95s1.66,1.87,2.54,2.79c1.73,1.84,3.57,3.63,5.31,5.55a26.54,26.54,0,0,1,4.46,6.42,14.54,14.54,0,0,1,1.13,3.74,13.56,13.56,0,0,1,0,3.87,13.78,13.78,0,0,0-1.9-7.22,26.79,26.79,0,0,0-4.78-5.76c-1.81-1.75-3.75-3.41-5.65-5.16-.94-.88-1.87-1.8-2.76-2.76s-1.73-1.94-2.57-2.88c-1.67-1.91-3.41-3.76-5.13-5.62s-3.53-3.64-5.38-5.38c-3.63-3.53-7.39-6.93-11.35-10.08s-8-6.18-12.23-9S321,49.34,316.56,47a139.31,139.31,0,0,0-13.9-6.19A57.38,57.38,0,0,0,287.92,37.07Z"/></g><g id="Layer_7" data-name="Layer 7" class="cls-3"><path class="cls-4" d="M437.68.43l-52,66.5c-1,1.25.78,3,1.77,1.76l52-66.49c1-1.25-.77-3-1.77-1.77Z"/><path class="cls-2" d="M389.51,72.56c-.16-3.85-4.32-6.37-7.94-6s-6.76,2.75-9.69,5l-12.77,10c-4.68,3.66-9.4,7.34-14.62,10.07a72.53,72.53,0,0,1-17.61,6A150,150,0,0,1,276,100.39c2,20,14.51,38.41,31.8,46.75,4.92,2.38,10.39,4,15.73,3.05,7.16-1.26,12.92-6.85,17.58-12.73,6.41-8.07,11.62-17.12,17.47-25.67,9.76-14.28,17.94-28.15,30.91-39.23"/><path class="cls-5" d="M390.11,72.39c-1.11-7-8.79-7.48-14-4.56-9.86,5.59-17.86,14.44-27.4,20.59-9.92,6.4-21.68,9.06-33.22,10.78a152.37,152.37,0,0,1-39.51.56.64.64,0,0,0-.63.63,61.67,61.67,0,0,0,16.83,36.16c8.64,8.87,23.21,18.42,35.91,12.88,13.48-5.88,21.3-22.73,29-34.29C366.92,100.33,376.44,84.79,390,73c.61-.53-.28-1.41-.88-.88-13.8,12-23.57,28-33.56,43.16-5.68,8.63-10.92,17.82-18,25.44-3.48,3.75-7.62,7.17-12.64,8.54-6.13,1.67-12.62-.49-18-3.3-15.39-8-26.22-23.64-29.47-40.54-.23-1.19-.63-2.08.07-3.2.94-1.5,1.59-.87,3.28-.72,2.52.21,5,.37,7.57.46a151.58,151.58,0,0,0,16.09-.29A141.73,141.73,0,0,0,332,97.07c9.29-2.57,17.13-7,24.76-12.86,4.51-3.47,9-7,13.46-10.51s16.91-12.27,18.71-1c.13.79,1.33.45,1.2-.34Z"/></g><g id="Layer_1-2" data-name="Layer 1"><text class="cls-6" transform="translate(97.34 194.27) rotate(-0.36)">abc4d</text></g></g></svg>